<svg width="300" height="300" viewBox="0 0 300 300" fill="none" xmlns="http://www.w3.org/2000/svg">
<circle cx="150" cy="150" r="150" fill="#FF6F61"/>
<path d="M57 74C57.9951 77.6906 61.342 82.8708 63.8598 87.3229C66.2078 91.4748 68.3778 96.9441 71.0614 102.697C73.3452 107.593 75.7552 111.773 78.0971 117.148C80.1854 121.941 81.7858 126.224 83.2935 130.86C85.2472 136.867 88.4798 142.521 91.8318 149.38C94.6341 155.114 96.5206 161.419 98.2042 166.249C99.7722 170.748 101.888 175.136 104.064 179.588C106.17 183.896 107.918 188.476 110.426 191.827C113.219 195.56 115.618 184.074 118.97 176.854C121.18 172.092 122.653 167.399 125.171 162.947C127.519 158.795 129.026 154.06 131.202 149.424C133.742 144.012 135.056 138.497 136.564 134.045C138.328 128.835 141.087 124.046 143.263 119.594C145.368 115.286 147.117 110.706 148.625 106.254C150.231 101.512 152.806 97.3665 154.49 92.9144C156.127 88.5849 157.168 84.0269 158.676 79.5748C159.072 78.4063 159.842 77.3571 160.35 76.2399C165.569 64.7528 162.194 124.735 163.37 131.032C165.545 142.677 164.546 163.486 165.38 183.774C166.398 208.527 166.546 225.182 168.551 224.999C174.932 224.415 183.623 223.337 192.654 222.775C198.42 222.417 204.388 221.113 209.59 220.552C214.781 219.624 219.816 219.257 226.631 218.701C232.451 218.512 243.064 218.512 254 218.512" stroke="#0047AB" stroke-width="25" stroke-linecap="round"/>
</svg>
